# xmcd CD database file
# Copyright (C) 1997 Ti Kan
# 
# Track frame offsets:
#     150
#     13577
#     25007
#     36310
#     49145
#     61117
#     71820
#     83697
#     99000
#     109952
#     128072
#     138100
#     154395
# 
# Disc length: 2237 seconds
# 
# Revision: 1
# Processed by: cddbd v1.4b41PL1 Copyright (c) Steve Scherf et al.
# Submitted via: DiscPlay 4.0.3
# 
DISCID=a208bb0d
DTITLE=Frank Frost - Harp and Soul
DYEAR=1900
DGENRE=
TTITLE0=Harp And Soul
TTITLE1=Things You Do
TTITLE2=Feel Good Babe
TTITLE3=Got My Mojo Working
TTITLE4=My Back Scratcher
TTITLE5=Pocket Full Of Money
TTITLE6=Ride With Your Dady Tonight
TTITLE7=Janie On My Mind
TTITLE8=Never Leave Me At Home
TTITLE9=Didn't Mean No Harm
TTITLE10=Pretty Baby
TTITLE11=Five Long Years
TTITLE12=Harpin' On It
EXTD=
EXTT0=
EXTT1=
EXTT2=
EXTT3=
EXTT4=
EXTT5=
EXTT6=
EXTT7=
EXTT8=
EXTT9=
EXTT10=
EXTT11=
EXTT12=
PLAYORDER=
